#N canvas 2210 1821 3740 1969 12;
#X obj 121 505 dac~;
#X obj 121 364 osc~;
#X obj 121 457 *~;
#X obj 142 432 hsl 128 15 0 0.5 0 0 empty empty empty -2 -8 0 10 -262144
-1 -1 8500 1;
#X obj 121 263 *;
#X obj 121 316 +~;
#X obj 238 246 osc~;
#X obj 238 211 *;
#X floatatom 139 76 5 0 0 0 base_freq - -;
#X floatatom 121 222 5 0 0 0 carrier_ratio - -;
#X obj 238 297 *~;
#X floatatom 286 245 5 0 0 1 mod_index - -;
#X floatatom 238 173 5 0 0 1 mod_ratio - -;
#X obj 286 383 spectrograph~ -db;
#X connect 1 0 2 0;
#X connect 1 0 13 0;
#X connect 2 0 0 0;
#X connect 2 0 0 1;
#X connect 3 0 2 1;
#X connect 4 0 5 0;
#X connect 5 0 1 0;
#X connect 6 0 10 0;
#X connect 7 0 6 0;
#X connect 8 0 7 1;
#X connect 8 0 4 1;
#X connect 9 0 4 0;
#X connect 10 0 5 1;
#X connect 11 0 10 1;
#X connect 12 0 7 0;
#X coords 0 0 0.5 0.5 0 0 0;
